<svg version="1.1" id="Layer_1" xmlns="http://www.w3.org/2000/svg" xmlns:xlink="http://www.w3.org/1999/xlink" x="0px" y="0px"
	 width="100%" viewBox="0 0 1254 1254" enable-background="new 0 0 1254 1254" xml:space="preserve">
<path fill="#021840" opacity="1.000000" stroke="none" 
	d="
M854.000000,1255.000000 
	C569.333313,1255.000000 285.166656,1255.000000 1.000000,1255.000000 
	C1.000000,837.000000 1.000000,419.000000 1.000000,1.000000 
	C419.000000,1.000000 837.000000,1.000000 1255.000000,1.000000 
	C1255.000000,419.000000 1255.000000,837.000000 1255.000000,1255.000000 
	C1121.500000,1255.000000 988.000000,1255.000000 854.000000,1255.000000 
M621.031982,619.211304 
	C621.018555,714.182068 621.004089,809.152832 621.006470,904.123596 
	C621.006531,905.070374 621.230469,906.017151 621.332153,906.823608 
	C652.174683,906.823608 682.732727,906.823608 713.779602,906.823608 
	C713.779602,840.893433 713.779602,775.318787 713.779602,709.226624 
	C715.890442,709.226624 717.513916,709.227966 719.137329,709.226501 
	C743.296570,709.204834 767.456482,709.278931 791.614624,709.102722 
	C798.928101,709.049377 806.318970,708.857788 813.534546,707.787354 
	C885.452942,697.117859 936.726624,658.266113 963.779968,591.181091 
	C989.625793,527.090210 982.192871,464.998505 941.711182,408.230865 
	C917.343201,374.059509 884.535706,350.611298 844.126099,338.979248 
	C829.529663,334.777649 814.072998,333.564911 798.787170,330.215027 
	C796.610474,329.810822 794.433960,329.053497 792.257141,329.052795 
	C631.474060,328.999939 470.691040,329.007080 309.907990,329.008698 
	C304.243103,329.008759 298.570282,328.840027 292.919312,329.118317 
	C291.619537,329.182312 290.394684,330.768311 289.299469,332.495422 
	C289.299469,362.265869 289.299469,392.036285 289.299469,422.370270 
	C397.265991,422.370270 504.593140,422.370270 612.563171,422.370270 
	C611.665100,423.551880 611.303528,424.084473 610.886047,424.568909 
	C547.371826,498.256042 483.743774,571.845398 420.371246,645.654175 
	C372.081482,701.896301 324.104797,758.407349 276.071320,814.869019 
	C274.922821,816.219116 274.212341,818.398071 274.204773,820.194214 
	C274.088867,847.685974 274.109222,875.178284 274.162689,902.670471 
	C274.165771,904.250854 274.725708,905.830139 275.333771,908.104736 
	C276.733093,908.403931 278.132294,908.964600 279.531708,908.965088 
	C380.436188,909.003784 481.340698,909.005310 582.245117,908.930115 
	C583.868530,908.928894 585.491211,907.945557 587.817322,907.164795 
	C588.550415,907.247681 589.283569,907.330505 590.065308,908.119873 
	C590.417480,908.521240 590.769653,908.922607 591.121826,909.323975 
	C591.408752,908.687866 591.695679,908.051697 592.695007,907.159790 
	C593.436279,907.249451 594.177612,907.339111 595.099182,907.846741 
	C595.343445,907.687927 595.587708,907.529114 596.366455,906.809937 
	C596.528320,905.846497 596.830444,904.883240 596.831604,903.919617 
	C596.864563,875.730835 596.877625,847.542053 596.835754,819.353333 
	C596.834167,818.303467 596.250977,817.254578 595.417542,815.550903 
	C593.457275,815.367676 591.497131,815.025269 589.536804,815.024231 
	C525.989807,814.991638 462.442841,815.004272 398.895905,814.931396 
	C396.885834,814.929138 394.876740,814.098633 393.048096,813.024475 
	C434.438995,765.340698 475.714386,717.556091 517.246582,669.995667 
	C588.476135,588.427368 659.875549,507.007446 731.140686,425.470184 
	C733.164612,423.154541 735.101379,421.990479 738.296448,422.019714 
	C756.291077,422.184204 774.291016,421.899841 792.283142,422.170074 
	C810.711609,422.446838 827.688416,427.767456 842.972290,438.184357 
	C895.878540,474.243378 900.518860,552.924622 852.178955,595.104553 
	C835.817810,609.380859 816.904968,617.487000 794.365723,617.417786 
	C793.221802,617.278625 792.077942,617.018188 790.933960,617.017700 
	C735.820618,616.996948 680.707275,616.988220 625.593994,617.052917 
	C624.097839,617.054688 622.602600,617.876709 621.031982,619.211304 
z"/>
<path fill="#FDFCFD" opacity="1.000000" stroke="none" 
	d="
M595.938843,816.205200 
	C596.250977,817.254578 596.834167,818.303467 596.835754,819.353333 
	C596.877625,847.542053 596.864563,875.730835 596.831604,903.919617 
	C596.830444,904.883240 596.528320,905.846497 595.865784,907.022583 
	C595.365112,907.235291 594.918884,907.428772 594.918884,907.428772 
	C594.177612,907.339111 593.436279,907.249451 592.017456,907.177124 
	C590.898865,907.267517 590.457764,907.340454 590.016663,907.413391 
	C589.283569,907.330505 588.550415,907.247681 587.010498,907.182861 
	C498.457458,907.195068 410.711212,907.177979 322.964935,907.193787 
	C306.985474,907.196716 291.005981,907.334473 275.026520,907.409973 
	C274.725708,905.830139 274.165771,904.250854 274.162689,902.670471 
	C274.109222,875.178284 274.088867,847.685974 274.204773,820.194214 
	C274.212341,818.398071 274.922821,816.219116 276.071320,814.869019 
	C324.104797,758.407349 372.081482,701.896301 420.371246,645.654175 
	C483.743774,571.845398 547.371826,498.256042 610.886047,424.568909 
	C611.303528,424.084473 611.665100,423.551880 612.563171,422.370270 
	C504.593140,422.370270 397.265991,422.370270 289.299469,422.370270 
	C289.299469,392.036285 289.299469,362.265869 289.635681,331.858063 
	C291.463501,331.148682 292.955139,331.013611 294.446747,331.013580 
	C416.846405,331.011444 539.246033,331.024109 661.645691,331.025299 
	C707.433411,331.025757 753.221130,331.001373 799.008850,330.988281 
	C814.072998,333.564911 829.529663,334.777649 844.126099,338.979248 
	C884.535706,350.611298 917.343201,374.059509 941.711182,408.230865 
	C982.192871,464.998505 989.625793,527.090210 963.779968,591.181091 
	C936.726624,658.266113 885.452942,697.117859 813.534546,707.787354 
	C806.318970,708.857788 798.928101,709.049377 791.614624,709.102722 
	C767.456482,709.278931 743.296570,709.204834 719.137329,709.226501 
	C717.513916,709.227966 715.890442,709.226624 713.779602,709.226624 
	C713.779602,775.318787 713.779602,840.893433 713.779602,906.823608 
	C682.732727,906.823608 652.174683,906.823608 621.332153,906.823608 
	C621.230469,906.017151 621.006531,905.070374 621.006470,904.123596 
	C621.004089,809.152832 621.018555,714.182068 621.530396,618.749817 
	C676.871094,618.316345 731.713379,618.350403 786.555664,618.355042 
	C789.365967,618.355286 792.176270,618.102661 794.986572,617.967773 
	C816.904968,617.487000 835.817810,609.380859 852.178955,595.104553 
	C900.518860,552.924622 895.878540,474.243378 842.972290,438.184357 
	C827.688416,427.767456 810.711609,422.446838 792.283142,422.170074 
	C774.291016,421.899841 756.291077,422.184204 738.296448,422.019714 
	C735.101379,421.990479 733.164612,423.154541 731.140686,425.470184 
	C659.875549,507.007446 588.476135,588.427368 517.246582,669.995667 
	C475.714386,717.556091 434.438995,765.340698 392.636963,813.513550 
	C391.888580,814.668518 391.551300,815.334351 391.214050,816.000244 
	C392.263367,816.043945 393.312714,816.087646 394.721588,816.345703 
	C397.263519,816.413025 399.445923,816.265930 402.021545,816.306641 
	C443.985504,816.513550 485.556305,816.575073 527.127014,816.535095 
	C550.064331,816.513062 573.001587,816.320740 595.938843,816.205200 
z"/>
<path fill="#00092C" opacity="1.000000" stroke="none" 
	d="
M798.898010,330.601654 
	C753.221130,331.001373 707.433411,331.025757 661.645691,331.025299 
	C539.246033,331.024109 416.846405,331.011444 294.446747,331.013580 
	C292.955139,331.013611 291.463501,331.148682 289.553650,331.437286 
	C290.394684,330.768311 291.619537,329.182312 292.919312,329.118317 
	C298.570282,328.840027 304.243103,329.008759 309.907990,329.008698 
	C470.691040,329.007080 631.474060,328.999939 792.257141,329.052795 
	C794.433960,329.053497 796.610474,329.810822 798.898010,330.601654 
z"/>
<path fill="#000D2D" opacity="1.000000" stroke="none" 
	d="
M275.180145,907.757324 
	C291.005981,907.334473 306.985474,907.196716 322.964935,907.193787 
	C410.711212,907.177979 498.457458,907.195068 586.658997,907.310791 
	C585.491211,907.945557 583.868530,908.928894 582.245117,908.930115 
	C481.340698,909.005310 380.436188,909.003784 279.531708,908.965088 
	C278.132294,908.964600 276.733093,908.403931 275.180145,907.757324 
z"/>
<path fill="#06092E" opacity="1.000000" stroke="none" 
	d="
M595.678223,815.878052 
	C573.001587,816.320740 550.064331,816.513062 527.127014,816.535095 
	C485.556305,816.575073 443.985504,816.513550 401.502258,816.254395 
	C398.513824,816.053467 396.437927,816.092407 394.362030,816.131348 
	C393.312714,816.087646 392.263367,816.043945 391.214050,816.000244 
	C391.551300,815.334351 391.888580,814.668518 392.546509,813.828430 
	C394.876740,814.098633 396.885834,814.929138 398.895905,814.931396 
	C462.442841,815.004272 525.989807,814.991638 589.536804,815.024231 
	C591.497131,815.025269 593.457275,815.367676 595.678223,815.878052 
z"/>
<path fill="#04082E" opacity="1.000000" stroke="none" 
	d="
M794.676147,617.692749 
	C792.176270,618.102661 789.365967,618.355286 786.555664,618.355042 
	C731.713379,618.350403 676.871094,618.316345 621.567871,618.302246 
	C622.602600,617.876709 624.097839,617.054688 625.593994,617.052917 
	C680.707275,616.988220 735.820618,616.996948 790.933960,617.017700 
	C792.077942,617.018188 793.221802,617.278625 794.676147,617.692749 
z"/>
<path fill="#000D2D" opacity="1.000000" stroke="none" 
	d="
M590.041016,907.766602 
	C590.457764,907.340454 590.898865,907.267517 591.661255,907.305054 
	C591.695679,908.051697 591.408752,908.687866 591.121826,909.323975 
	C590.769653,908.922607 590.417480,908.521240 590.041016,907.766602 
z"/>
<path fill="#000D2D" opacity="1.000000" stroke="none" 
	d="
M595.009033,907.637756 
	C594.918884,907.428772 595.365112,907.235291 595.598511,907.302795 
	C595.587708,907.529114 595.343445,907.687927 595.009033,907.637756 
z"/>
<path fill="#021840" opacity="1.000000" stroke="none" 
	d="
M394.721588,816.345703 
	C396.437927,816.092407 398.513824,816.053467 401.109009,816.066711 
	C399.445923,816.265930 397.263519,816.413025 394.721588,816.345703 
z"/>
</svg>